# xmcd
# 
# Track frame offsets:
#     150
#     11193
#     22679
#     32754
#     43784
#     56817
#     67936
#     78458
#     90989
#     103492
#     114714
#     128642
#     139903
#     152689
#     167246
#     181251
#     194120
#     208494
#     221369
#     233684
#     245813
#     259729
#     273214
#     283655
#     296538
# 
# Disc length: 4121
# 
# Revision: 0
# Processed by: cddbd v1.5.2PL0 Copyright (c) Steve Scherf et al.
# Submitted via: fre:ac v1.0.27
# 
DISCID=78101719
DTITLE=Various Artist - Hot Hundred Blues - Disc 4
DYEAR=2014
DGENRE=Blues
TTITLE0=Howlin' Wolf - The Red Rooster
TTITLE1=Muddy Waters - Gypsy Woman
TTITLE2=John Lee Hooker - Dimples
TTITLE3=Billie Holiday - Strange Fruit
TTITLE4=Alexis Korner - I Wanna Put A Tiger In Your Tank
TTITLE5=B. B. King - B. B. Blues
TTITLE6=Robert Johnson - Love In Vain
TTITLE7=Roosevelt Sykes - The Night Time Is The Right Time
TTITLE8=Jimmy Rogers - That's All Right
TTITLE9=Johnny Shines - Evening Sun
TTITLE10=Little Walter - Blues With A Feeling
TTITLE11=Alexis Korner - Keep Your Hands Off
TTITLE12=Howlin' Wolf - Back Door Man
TTITLE13=Robert Nighthawk - Anna Lee Blues
TTITLE14=John Lee Hooker - I'm In The Mood
TTITLE15=Elmore James - Sho Nuff I Do
TTITLE16=Muddy Waters - Please Have Mercy
TTITLE17=Lightnin' Hopkins - Whiskey Headed Woman
TTITLE18=Jimmy Reed - Jimmy's Boogie
TTITLE19=Sonny Boy Williamson II - I Cross My Heart
TTITLE20=Muddy Waters - Where's My Woman Been
TTITLE21=John Lee Hooker - Crawlin' Kingsnake
TTITLE22=B. B. King - Don't You Want A Man Like Me?
TTITLE23=Robert Johnson - Preachin' Blues (Up Jumped The Devil)
TTITLE24=Howlin' Wolf - I've Got A Woman
EXTD=
EXTT0=
EXTT1=
EXTT2=
EXTT3=
EXTT4=
EXTT5=
EXTT6=
EXTT7=
EXTT8=
EXTT9=
EXTT10=
EXTT11=
EXTT12=
EXTT13=
EXTT14=
EXTT15=
EXTT16=
EXTT17=
EXTT18=
EXTT19=
EXTT20=
EXTT21=
EXTT22=
EXTT23=
EXTT24=
PLAYORDER=
